<?xml version="1.0" encoding="UTF-8"?>
<svg width="238px" height="242px" viewBox="0 0 238 242" version="1.1" xmlns="http://www.w3.org/2000/svg" xmlns:xlink="http://www.w3.org/1999/xlink">
    <title>face_bg</title>
    <g id="02_mobile_view" stroke="none" stroke-width="1" fill="none" fill-rule="evenodd" opacity="0.0462663532">
        <g id="02_Nature-Boy-Fitness_Mobile_Menu" transform="translate(70.000000, -628.000000)">
            <g id="face_bg" transform="translate(-69.000000, 629.000000)">
                <path d="M117.5,17 C174.661472,17 221,63.3385284 221,120.5 C221,177.661472 174.661472,224 117.5,224 C60.3385284,224 14,177.661472 14,120.5 C14,63.3385284 60.3385284,17 117.5,17 Z M168.493569,152.571441 C165.274713,149.352585 160.044242,149.364261 156.810984,152.597519 C134.178179,175.230324 97.5648811,175.312053 75.0328941,152.780066 C71.8140388,149.561211 66.5835676,149.572886 63.3503097,152.806144 C60.1170519,156.039402 60.1053763,161.269873 63.3242315,164.488729 C92.2939291,193.458426 139.36817,193.353346 168.46749,164.254025 C171.700748,161.020767 171.712424,155.790296 168.493569,152.571441 Z M155.999586,88.15625 C146.895288,88.15625 139.514797,95.5697651 139.514797,104.714799 C139.514797,113.859834 146.895288,121.273349 155.999586,121.273349 C165.103884,121.273349 172.484375,113.859834 172.484375,104.714799 C172.484375,95.5697651 165.103884,88.15625 155.999586,88.15625 Z M108.663021,99.9635909 C95.6266576,86.9272269 74.4432493,86.9745131 61.3485549,100.069208 C59.8935889,101.524174 59.8883349,103.877886 61.3368198,105.32637 C62.7853046,106.774855 65.1390167,106.769601 66.5939827,105.314635 C76.778745,95.129873 93.2547292,95.0930948 103.394123,105.232489 C104.842608,106.680974 107.19632,106.67572 108.651286,105.220754 C110.106252,103.765788 110.111506,101.412076 108.663021,99.9635909 Z" id="face" fill="#F6F8FD"></path>
                <path d="M148.81169,238 C200.156156,224.398979 238,177.616891 238,121.996181 C238,55.7241203 184.27417,2 118,2 C51.72583,2 -2,55.7241203 -2,121.996181 C-2,177.397555 35.5459633,224.029879 86.5815226,237.83755" id="Path" stroke="#F6F8FD" stroke-width="1.62015504" transform="translate(118.000000, 120.000000) rotate(-270.000000) translate(-118.000000, -120.000000) "></path>
            </g>
        </g>
    </g>
</svg>